<svg xmlns="http://www.w3.org/2000/svg" viewBox="0 0 342.63 365.99" fill="white">
	<title>
		Housewolf Studios Logo
	</title>
    <path d="M335,236c-7.14-32.4-22.57-64.69-37.25-82.81-14.49-17.88-23.71-23.38-24.78-30.48-6.2-41.11-16.39-62-34.14-89.95C222.86,7.61,213-1.9,205,.31c-5.93,1.63-16.84,31.08-20.89,39.19S178,61.12,166.5,69.23s-57.76,43.65-71.95,58.51-18.24,32.31-23.38,51.6c-2.68,10.06-15,25-24.94,32.46C28.78,224.89,1.59,242.67,0,251.09c-1,5.72,20.51,36.79,44.16,43.54s64.86,1.28,75.89-1.78c8.74-2.43,28.19-7.78,28.19-7.78s.62,27.39-8.56,36.5c-11.61,11.53,41.72-1.29,41.72-1.29s-1.84,35,3.88,34.43c8.43-.77,37.26-24.58,37.26-24.58s28.28,30.41,30.92,35.54c2.37,4.59,16.7-41,16.7-41s25.58,10.09,35.17,26.34c0,0-3.82-35.39,4.28-43.51,0,0,16.2.52,28.64,11.59C343.82,324,345.39,283.24,335,236ZM130.28,181.44c-11.52,6.37-21.45-1.28-21.45-1.28A17.46,17.46,0,0,1,118,165.68c12.76-6.85,29.39-5.4,29.39-5.4S141.8,175.07,130.28,181.44Zm59.17-120c-2.2-11,12.25-43.43,15.49-47,5.89-6.43,11.17,11.14,16.82,39,3.58,17.69,3.87,38.58,3.87,38.58S191.66,72.46,189.45,61.43Z" />
    <path d="M90.35,78.65C81.06,67,111.93,21.26,134.4,18.23c27.14-3.66,45.68,20,44.6,25.44-1.06,5.26-4,13.31-9.69,18.51-6.71,6.1-51.11,39.91-51.11,39.91s7.9-34-1.06-38.63C110.18,59.84,92.58,81.47,90.35,78.65Z" />
</svg>
